<mxfile host="app.diagrams.net" modified="2023-10-27T05:52:34.498Z" agent="Mozilla/5.0 (Windows NT 10.0; Win64; x64; rv:109.0) Gecko/20100101 Firefox/119.0" etag="3p_MfhjGBnwYLUR5XI3y" version="22.0.8" type="device">
  <diagram name="Page-1" id="vK2Hwuuw16ScUuU72nJb">
    <mxGraphModel dx="880" dy="462" grid="1" gridSize="10" guides="1" tooltips="1" connect="1" arrows="1" fold="1" page="1" pageScale="1" pageWidth="4681" pageHeight="3300" math="0" shadow="0">
      <root>
        <mxCell id="0" />
        <mxCell id="1" parent="0" />
        <mxCell id="pKcUwKG9cRj5ERJw97R6-1" value="&lt;font color=&quot;#ffffff&quot; face=&quot;Times New Roman&quot;&gt;START&lt;/font&gt;" style="strokeWidth=2;html=1;shape=mxgraph.flowchart.terminator;whiteSpace=wrap;hachureGap=4;fontFamily=Architects Daughter;fontSource=https%3A%2F%2Ffonts.googleapis.com%2Fcss%3Ffamily%3DArchitects%2BDaughter;fontSize=20;fillColor=#6a00ff;strokeColor=#3700CC;fontColor=#ffffff;" parent="1" vertex="1">
          <mxGeometry x="1490" y="110" width="140" height="60" as="geometry" />
        </mxCell>
        <mxCell id="pKcUwKG9cRj5ERJw97R6-3" value="" style="endArrow=classic;html=1;rounded=0;hachureGap=4;fontFamily=Architects Daughter;fontSource=https%3A%2F%2Ffonts.googleapis.com%2Fcss%3Ffamily%3DArchitects%2BDaughter;fontSize=16;" parent="1" edge="1">
          <mxGeometry width="50" height="50" relative="1" as="geometry">
            <mxPoint x="1559.5" y="170" as="sourcePoint" />
            <mxPoint x="1560" y="200" as="targetPoint" />
          </mxGeometry>
        </mxCell>
        <mxCell id="pKcUwKG9cRj5ERJw97R6-10" value="" style="edgeStyle=orthogonalEdgeStyle;rounded=0;hachureGap=4;orthogonalLoop=1;jettySize=auto;html=1;fontFamily=Architects Daughter;fontSource=https%3A%2F%2Ffonts.googleapis.com%2Fcss%3Ffamily%3DArchitects%2BDaughter;fontSize=16;" parent="1" source="pKcUwKG9cRj5ERJw97R6-4" target="pKcUwKG9cRj5ERJw97R6-9" edge="1">
          <mxGeometry relative="1" as="geometry" />
        </mxCell>
        <mxCell id="pKcUwKG9cRj5ERJw97R6-4" value="&lt;font face=&quot;Times New Roman&quot;&gt;Input Kategori&lt;br&gt;&lt;/font&gt;" style="shape=parallelogram;perimeter=parallelogramPerimeter;whiteSpace=wrap;html=1;fixedSize=1;hachureGap=4;fontFamily=Architects Daughter;fontSource=https%3A%2F%2Ffonts.googleapis.com%2Fcss%3Ffamily%3DArchitects%2BDaughter;fontSize=20;fillColor=#647687;fontColor=#ffffff;strokeColor=#314354;" parent="1" vertex="1">
          <mxGeometry x="1485" y="290" width="150" height="60" as="geometry" />
        </mxCell>
        <mxCell id="pKcUwKG9cRj5ERJw97R6-6" value="" style="endArrow=classic;html=1;rounded=0;hachureGap=4;fontFamily=Architects Daughter;fontSource=https%3A%2F%2Ffonts.googleapis.com%2Fcss%3Ffamily%3DArchitects%2BDaughter;fontSize=16;" parent="1" edge="1">
          <mxGeometry width="50" height="50" relative="1" as="geometry">
            <mxPoint x="1559.5" y="260" as="sourcePoint" />
            <mxPoint x="1560" y="290" as="targetPoint" />
          </mxGeometry>
        </mxCell>
        <mxCell id="pKcUwKG9cRj5ERJw97R6-7" value="&lt;font face=&quot;Times New Roman&quot;&gt;Input Level&lt;br&gt;&lt;/font&gt;" style="shape=parallelogram;perimeter=parallelogramPerimeter;whiteSpace=wrap;html=1;fixedSize=1;hachureGap=4;fontFamily=Architects Daughter;fontSource=https%3A%2F%2Ffonts.googleapis.com%2Fcss%3Ffamily%3DArchitects%2BDaughter;fontSize=20;fillColor=#647687;strokeColor=#314354;fontColor=#ffffff;" parent="1" vertex="1">
          <mxGeometry x="1490" y="200" width="150" height="60" as="geometry" />
        </mxCell>
        <mxCell id="pKcUwKG9cRj5ERJw97R6-14" value="" style="edgeStyle=orthogonalEdgeStyle;rounded=0;hachureGap=4;orthogonalLoop=1;jettySize=auto;html=1;fontFamily=Architects Daughter;fontSource=https%3A%2F%2Ffonts.googleapis.com%2Fcss%3Ffamily%3DArchitects%2BDaughter;fontSize=16;" parent="1" source="pKcUwKG9cRj5ERJw97R6-9" target="pKcUwKG9cRj5ERJw97R6-13" edge="1">
          <mxGeometry relative="1" as="geometry" />
        </mxCell>
        <mxCell id="pKcUwKG9cRj5ERJw97R6-9" value="&lt;font face=&quot;Times New Roman&quot;&gt;Input Barang&lt;br&gt;&lt;/font&gt;" style="shape=parallelogram;perimeter=parallelogramPerimeter;whiteSpace=wrap;html=1;fixedSize=1;hachureGap=4;fontFamily=Architects Daughter;fontSource=https%3A%2F%2Ffonts.googleapis.com%2Fcss%3Ffamily%3DArchitects%2BDaughter;fontSize=20;fillColor=#647687;fontColor=#ffffff;strokeColor=#314354;" parent="1" vertex="1">
          <mxGeometry x="1485" y="380" width="150" height="60" as="geometry" />
        </mxCell>
        <mxCell id="pKcUwKG9cRj5ERJw97R6-16" value="" style="edgeStyle=orthogonalEdgeStyle;rounded=0;hachureGap=4;orthogonalLoop=1;jettySize=auto;html=1;fontFamily=Architects Daughter;fontSource=https%3A%2F%2Ffonts.googleapis.com%2Fcss%3Ffamily%3DArchitects%2BDaughter;fontSize=16;" parent="1" source="pKcUwKG9cRj5ERJw97R6-13" target="pKcUwKG9cRj5ERJw97R6-15" edge="1">
          <mxGeometry relative="1" as="geometry" />
        </mxCell>
        <mxCell id="pKcUwKG9cRj5ERJw97R6-13" value="&lt;font face=&quot;Times New Roman&quot;&gt;Mulai Berbelanja&lt;br&gt;&lt;/font&gt;" style="whiteSpace=wrap;html=1;fontSize=20;fontFamily=Architects Daughter;hachureGap=4;fontSource=https%3A%2F%2Ffonts.googleapis.com%2Fcss%3Ffamily%3DArchitects%2BDaughter;fillColor=#d80073;fontColor=#ffffff;strokeColor=#A50040;" parent="1" vertex="1">
          <mxGeometry x="1500" y="470" width="120" height="60" as="geometry" />
        </mxCell>
        <mxCell id="pKcUwKG9cRj5ERJw97R6-18" value="" style="edgeStyle=orthogonalEdgeStyle;rounded=0;hachureGap=4;orthogonalLoop=1;jettySize=auto;html=1;fontFamily=Architects Daughter;fontSource=https%3A%2F%2Ffonts.googleapis.com%2Fcss%3Ffamily%3DArchitects%2BDaughter;fontSize=16;" parent="1" source="pKcUwKG9cRj5ERJw97R6-15" target="pKcUwKG9cRj5ERJw97R6-17" edge="1">
          <mxGeometry relative="1" as="geometry" />
        </mxCell>
        <mxCell id="pKcUwKG9cRj5ERJw97R6-15" value="&lt;font face=&quot;Times New Roman&quot;&gt;Proses Pembayaran&lt;br&gt;&lt;/font&gt;" style="whiteSpace=wrap;html=1;fontSize=20;fontFamily=Architects Daughter;hachureGap=4;fontSource=https%3A%2F%2Ffonts.googleapis.com%2Fcss%3Ffamily%3DArchitects%2BDaughter;fillColor=#d80073;fontColor=#ffffff;strokeColor=#A50040;" parent="1" vertex="1">
          <mxGeometry x="1500" y="560" width="120" height="60" as="geometry" />
        </mxCell>
        <mxCell id="pKcUwKG9cRj5ERJw97R6-20" value="" style="edgeStyle=orthogonalEdgeStyle;rounded=0;hachureGap=4;orthogonalLoop=1;jettySize=auto;html=1;fontFamily=Architects Daughter;fontSource=https%3A%2F%2Ffonts.googleapis.com%2Fcss%3Ffamily%3DArchitects%2BDaughter;fontSize=16;" parent="1" source="pKcUwKG9cRj5ERJw97R6-17" target="pKcUwKG9cRj5ERJw97R6-19" edge="1">
          <mxGeometry relative="1" as="geometry" />
        </mxCell>
        <mxCell id="pKcUwKG9cRj5ERJw97R6-28" value="&lt;font face=&quot;Times New Roman&quot;&gt;ya&lt;/font&gt;" style="edgeLabel;html=1;align=center;verticalAlign=middle;resizable=0;points=[];fontSize=20;fontFamily=Architects Daughter;" parent="pKcUwKG9cRj5ERJw97R6-20" vertex="1" connectable="0">
          <mxGeometry x="-0.1667" y="2" relative="1" as="geometry">
            <mxPoint as="offset" />
          </mxGeometry>
        </mxCell>
        <mxCell id="pKcUwKG9cRj5ERJw97R6-17" value="&lt;font face=&quot;Times New Roman&quot;&gt;Total Belanjaan&lt;br&gt;&lt;/font&gt;" style="rhombus;whiteSpace=wrap;html=1;fontSize=20;fontFamily=Architects Daughter;hachureGap=4;fontSource=https%3A%2F%2Ffonts.googleapis.com%2Fcss%3Ffamily%3DArchitects%2BDaughter;fillColor=#fa6800;fontColor=#000000;strokeColor=#C73500;" parent="1" vertex="1">
          <mxGeometry x="1160" y="550" width="240" height="80" as="geometry" />
        </mxCell>
        <mxCell id="pKcUwKG9cRj5ERJw97R6-25" value="" style="edgeStyle=orthogonalEdgeStyle;rounded=0;hachureGap=4;orthogonalLoop=1;jettySize=auto;html=1;fontFamily=Architects Daughter;fontSource=https%3A%2F%2Ffonts.googleapis.com%2Fcss%3Ffamily%3DArchitects%2BDaughter;fontSize=16;" parent="1" source="pKcUwKG9cRj5ERJw97R6-19" target="pKcUwKG9cRj5ERJw97R6-24" edge="1">
          <mxGeometry relative="1" as="geometry" />
        </mxCell>
        <mxCell id="pKcUwKG9cRj5ERJw97R6-31" value="&lt;font face=&quot;Times New Roman&quot;&gt;Tidak&lt;/font&gt;" style="edgeLabel;html=1;align=center;verticalAlign=middle;resizable=0;points=[];fontSize=20;fontFamily=Architects Daughter;" parent="pKcUwKG9cRj5ERJw97R6-25" vertex="1" connectable="0">
          <mxGeometry x="-0.0333" y="2" relative="1" as="geometry">
            <mxPoint as="offset" />
          </mxGeometry>
        </mxCell>
        <mxCell id="pKcUwKG9cRj5ERJw97R6-19" value="&lt;font face=&quot;Times New Roman&quot;&gt;Diskon 10%&lt;br&gt;&lt;/font&gt;" style="whiteSpace=wrap;html=1;fontSize=20;fontFamily=Architects Daughter;hachureGap=4;fontSource=https%3A%2F%2Ffonts.googleapis.com%2Fcss%3Ffamily%3DArchitects%2BDaughter;fillColor=#d80073;fontColor=#ffffff;strokeColor=#A50040;" parent="1" vertex="1">
          <mxGeometry x="1220" y="690" width="120" height="60" as="geometry" />
        </mxCell>
        <mxCell id="pKcUwKG9cRj5ERJw97R6-22" value="" style="endArrow=none;html=1;rounded=0;hachureGap=4;fontFamily=Architects Daughter;fontSource=https%3A%2F%2Ffonts.googleapis.com%2Fcss%3Ffamily%3DArchitects%2BDaughter;fontSize=16;fillColor=#bac8d3;strokeColor=#999999;" parent="1" edge="1">
          <mxGeometry width="50" height="50" relative="1" as="geometry">
            <mxPoint x="1160" y="590" as="sourcePoint" />
            <mxPoint x="920" y="590" as="targetPoint" />
          </mxGeometry>
        </mxCell>
        <mxCell id="pKcUwKG9cRj5ERJw97R6-23" value="" style="endArrow=none;html=1;rounded=0;hachureGap=4;fontFamily=Architects Daughter;fontSource=https%3A%2F%2Ffonts.googleapis.com%2Fcss%3Ffamily%3DArchitects%2BDaughter;fontSize=16;strokeColor=#999999;" parent="1" edge="1">
          <mxGeometry width="50" height="50" relative="1" as="geometry">
            <mxPoint x="920" y="870" as="sourcePoint" />
            <mxPoint x="920" y="590" as="targetPoint" />
          </mxGeometry>
        </mxCell>
        <mxCell id="pKcUwKG9cRj5ERJw97R6-38" value="&lt;font face=&quot;Times New Roman&quot;&gt;Tidak&lt;/font&gt;" style="edgeLabel;html=1;align=center;verticalAlign=middle;resizable=0;points=[];fontSize=20;fontFamily=Architects Daughter;" parent="pKcUwKG9cRj5ERJw97R6-23" vertex="1" connectable="0">
          <mxGeometry x="0.1538" y="-3" relative="1" as="geometry">
            <mxPoint y="11" as="offset" />
          </mxGeometry>
        </mxCell>
        <mxCell id="pKcUwKG9cRj5ERJw97R6-33" value="" style="edgeStyle=orthogonalEdgeStyle;rounded=0;hachureGap=4;orthogonalLoop=1;jettySize=auto;html=1;fontFamily=Architects Daughter;fontSource=https%3A%2F%2Ffonts.googleapis.com%2Fcss%3Ffamily%3DArchitects%2BDaughter;fontSize=16;" parent="1" source="pKcUwKG9cRj5ERJw97R6-24" target="pKcUwKG9cRj5ERJw97R6-32" edge="1">
          <mxGeometry relative="1" as="geometry" />
        </mxCell>
        <mxCell id="pKcUwKG9cRj5ERJw97R6-34" value="&lt;font face=&quot;Times New Roman&quot;&gt;Tidak&lt;/font&gt;" style="edgeLabel;html=1;align=center;verticalAlign=middle;resizable=0;points=[];fontSize=20;fontFamily=Architects Daughter;" parent="pKcUwKG9cRj5ERJw97R6-33" vertex="1" connectable="0">
          <mxGeometry x="-0.12" relative="1" as="geometry">
            <mxPoint as="offset" />
          </mxGeometry>
        </mxCell>
        <mxCell id="pKcUwKG9cRj5ERJw97R6-24" value="&lt;font face=&quot;Times New Roman&quot;&gt;Level==Silver?&lt;br&gt;&lt;/font&gt;" style="rhombus;whiteSpace=wrap;html=1;fontSize=20;fontFamily=Architects Daughter;hachureGap=4;fontSource=https%3A%2F%2Ffonts.googleapis.com%2Fcss%3Ffamily%3DArchitects%2BDaughter;fillColor=#fa6800;fontColor=#000000;strokeColor=#C73500;" parent="1" vertex="1">
          <mxGeometry x="1165" y="830" width="230" height="80" as="geometry" />
        </mxCell>
        <mxCell id="pKcUwKG9cRj5ERJw97R6-27" value="" style="endArrow=none;html=1;rounded=0;sketch=1;hachureGap=4;jiggle=2;curveFitting=1;fontFamily=Architects Daughter;fontSource=https%3A%2F%2Ffonts.googleapis.com%2Fcss%3Ffamily%3DArchitects%2BDaughter;fontSize=16;strokeColor=#808080;" parent="1" edge="1">
          <mxGeometry width="50" height="50" relative="1" as="geometry">
            <mxPoint x="920" y="869.29" as="sourcePoint" />
            <mxPoint x="1165" y="869.29" as="targetPoint" />
          </mxGeometry>
        </mxCell>
        <mxCell id="pKcUwKG9cRj5ERJw97R6-36" value="" style="edgeStyle=orthogonalEdgeStyle;rounded=0;hachureGap=4;orthogonalLoop=1;jettySize=auto;html=1;fontFamily=Architects Daughter;fontSource=https%3A%2F%2Ffonts.googleapis.com%2Fcss%3Ffamily%3DArchitects%2BDaughter;fontSize=16;" parent="1" source="pKcUwKG9cRj5ERJw97R6-32" target="pKcUwKG9cRj5ERJw97R6-35" edge="1">
          <mxGeometry relative="1" as="geometry" />
        </mxCell>
        <mxCell id="pKcUwKG9cRj5ERJw97R6-37" value="&lt;font face=&quot;Times New Roman&quot;&gt;Tidak&lt;/font&gt;" style="edgeLabel;html=1;align=center;verticalAlign=middle;resizable=0;points=[];fontSize=20;fontFamily=Architects Daughter;" parent="pKcUwKG9cRj5ERJw97R6-36" vertex="1" connectable="0">
          <mxGeometry x="-0.0667" relative="1" as="geometry">
            <mxPoint as="offset" />
          </mxGeometry>
        </mxCell>
        <mxCell id="pKcUwKG9cRj5ERJw97R6-32" value="&lt;font face=&quot;Times New Roman&quot;&gt;Level==Gold?&lt;/font&gt;" style="rhombus;whiteSpace=wrap;html=1;fontSize=20;fontFamily=Architects Daughter;hachureGap=4;fontSource=https%3A%2F%2Ffonts.googleapis.com%2Fcss%3Ffamily%3DArchitects%2BDaughter;fillColor=#fa6800;fontColor=#000000;strokeColor=#C73500;" parent="1" vertex="1">
          <mxGeometry x="1175" y="980" width="220" height="90" as="geometry" />
        </mxCell>
        <mxCell id="pKcUwKG9cRj5ERJw97R6-35" value="&lt;font face=&quot;Times New Roman&quot;&gt;Level Platinum?&lt;br&gt;&lt;/font&gt;" style="rhombus;whiteSpace=wrap;html=1;fontSize=20;fontFamily=Architects Daughter;hachureGap=4;fontSource=https%3A%2F%2Ffonts.googleapis.com%2Fcss%3Ffamily%3DArchitects%2BDaughter;fillColor=#fa6800;fontColor=#000000;strokeColor=#C73500;" parent="1" vertex="1">
          <mxGeometry x="1170" y="1130" width="220" height="90" as="geometry" />
        </mxCell>
        <mxCell id="pKcUwKG9cRj5ERJw97R6-39" value="" style="endArrow=classic;html=1;rounded=0;hachureGap=4;fontFamily=Architects Daughter;fontSource=https%3A%2F%2Ffonts.googleapis.com%2Fcss%3Ffamily%3DArchitects%2BDaughter;fontSize=16;" parent="1" edge="1">
          <mxGeometry width="50" height="50" relative="1" as="geometry">
            <mxPoint x="1390" y="994.33" as="sourcePoint" />
            <mxPoint x="1490" y="994" as="targetPoint" />
          </mxGeometry>
        </mxCell>
        <mxCell id="pKcUwKG9cRj5ERJw97R6-44" value="&lt;font face=&quot;Times New Roman&quot;&gt;Ya&lt;/font&gt;" style="edgeLabel;html=1;align=center;verticalAlign=middle;resizable=0;points=[];fontSize=20;fontFamily=Architects Daughter;" parent="pKcUwKG9cRj5ERJw97R6-39" vertex="1" connectable="0">
          <mxGeometry x="-0.0468" y="-2" relative="1" as="geometry">
            <mxPoint as="offset" />
          </mxGeometry>
        </mxCell>
        <mxCell id="pKcUwKG9cRj5ERJw97R6-41" value="" style="endArrow=classic;html=1;rounded=0;hachureGap=4;fontFamily=Architects Daughter;fontSource=https%3A%2F%2Ffonts.googleapis.com%2Fcss%3Ffamily%3DArchitects%2BDaughter;fontSize=16;" parent="1" edge="1">
          <mxGeometry width="50" height="50" relative="1" as="geometry">
            <mxPoint x="1390" y="1144.33" as="sourcePoint" />
            <mxPoint x="1490" y="1144" as="targetPoint" />
          </mxGeometry>
        </mxCell>
        <mxCell id="pKcUwKG9cRj5ERJw97R6-45" value="&lt;font face=&quot;Times New Roman&quot;&gt;Ya&lt;/font&gt;" style="edgeLabel;html=1;align=center;verticalAlign=middle;resizable=0;points=[];fontSize=20;fontFamily=Architects Daughter;" parent="pKcUwKG9cRj5ERJw97R6-41" vertex="1" connectable="0">
          <mxGeometry x="-0.0203" y="-4" relative="1" as="geometry">
            <mxPoint as="offset" />
          </mxGeometry>
        </mxCell>
        <mxCell id="pKcUwKG9cRj5ERJw97R6-42" value="" style="endArrow=classic;html=1;rounded=0;hachureGap=4;fontFamily=Architects Daughter;fontSource=https%3A%2F%2Ffonts.googleapis.com%2Fcss%3Ffamily%3DArchitects%2BDaughter;fontSize=16;" parent="1" edge="1">
          <mxGeometry width="50" height="50" relative="1" as="geometry">
            <mxPoint x="1395" y="869.2900000000001" as="sourcePoint" />
            <mxPoint x="1490" y="869.2900000000001" as="targetPoint" />
          </mxGeometry>
        </mxCell>
        <mxCell id="pKcUwKG9cRj5ERJw97R6-43" value="&lt;font face=&quot;Times New Roman&quot;&gt;Ya&lt;/font&gt;" style="edgeLabel;html=1;align=center;verticalAlign=middle;resizable=0;points=[];fontSize=20;fontFamily=Architects Daughter;" parent="pKcUwKG9cRj5ERJw97R6-42" vertex="1" connectable="0">
          <mxGeometry x="-0.0456" y="1" relative="1" as="geometry">
            <mxPoint as="offset" />
          </mxGeometry>
        </mxCell>
        <mxCell id="pKcUwKG9cRj5ERJw97R6-47" value="&lt;font face=&quot;Times New Roman&quot;&gt;Diskon 5%&lt;br&gt;&lt;/font&gt;" style="rounded=0;whiteSpace=wrap;html=1;hachureGap=4;fontFamily=Architects Daughter;fontSource=https%3A%2F%2Ffonts.googleapis.com%2Fcss%3Ffamily%3DArchitects%2BDaughter;fontSize=20;fillColor=#d80073;fontColor=#ffffff;strokeColor=#A50040;" parent="1" vertex="1">
          <mxGeometry x="1490" y="830" width="120" height="60" as="geometry" />
        </mxCell>
        <mxCell id="pKcUwKG9cRj5ERJw97R6-48" value="&lt;font face=&quot;Times New Roman&quot;&gt;Diskon 10%&lt;br&gt;&lt;/font&gt;" style="rounded=0;whiteSpace=wrap;html=1;hachureGap=4;fontFamily=Architects Daughter;fontSource=https%3A%2F%2Ffonts.googleapis.com%2Fcss%3Ffamily%3DArchitects%2BDaughter;fontSize=20;fillColor=#d80073;fontColor=#ffffff;strokeColor=#A50040;" parent="1" vertex="1">
          <mxGeometry x="1490" y="960" width="120" height="60" as="geometry" />
        </mxCell>
        <mxCell id="pKcUwKG9cRj5ERJw97R6-49" value="&lt;font face=&quot;Times New Roman&quot;&gt;Diskon 15%&lt;br&gt;&lt;/font&gt;" style="rounded=0;whiteSpace=wrap;html=1;hachureGap=4;fontFamily=Architects Daughter;fontSource=https%3A%2F%2Ffonts.googleapis.com%2Fcss%3Ffamily%3DArchitects%2BDaughter;fontSize=20;fillColor=#d80073;fontColor=#ffffff;strokeColor=#A50040;" parent="1" vertex="1">
          <mxGeometry x="1490" y="1115" width="120" height="60" as="geometry" />
        </mxCell>
        <mxCell id="pKcUwKG9cRj5ERJw97R6-60" value="" style="edgeStyle=orthogonalEdgeStyle;rounded=0;hachureGap=4;orthogonalLoop=1;jettySize=auto;html=1;fontFamily=Architects Daughter;fontSource=https%3A%2F%2Ffonts.googleapis.com%2Fcss%3Ffamily%3DArchitects%2BDaughter;fontSize=16;" parent="1" source="pKcUwKG9cRj5ERJw97R6-50" target="pKcUwKG9cRj5ERJw97R6-59" edge="1">
          <mxGeometry relative="1" as="geometry" />
        </mxCell>
        <mxCell id="pKcUwKG9cRj5ERJw97R6-65" value="&lt;font face=&quot;Times New Roman&quot;&gt;ya&lt;/font&gt;" style="edgeLabel;html=1;align=center;verticalAlign=middle;resizable=0;points=[];fontSize=20;fontFamily=Architects Daughter;" parent="pKcUwKG9cRj5ERJw97R6-60" vertex="1" connectable="0">
          <mxGeometry x="-0.0667" y="-2" relative="1" as="geometry">
            <mxPoint y="1" as="offset" />
          </mxGeometry>
        </mxCell>
        <mxCell id="pKcUwKG9cRj5ERJw97R6-50" value="&lt;font face=&quot;Times New Roman&quot;&gt;Kategori==ATK?&lt;br&gt;&lt;/font&gt;" style="rhombus;whiteSpace=wrap;html=1;fontSize=20;fontFamily=Architects Daughter;rounded=0;hachureGap=4;fontSource=https%3A%2F%2Ffonts.googleapis.com%2Fcss%3Ffamily%3DArchitects%2BDaughter;fillColor=#fa6800;fontColor=#000000;strokeColor=#C73500;" parent="1" vertex="1">
          <mxGeometry x="1910" y="530" width="320" height="90" as="geometry" />
        </mxCell>
        <mxCell id="pKcUwKG9cRj5ERJw97R6-52" value="" style="endArrow=none;html=1;rounded=0;hachureGap=4;fontFamily=Architects Daughter;fontSource=https%3A%2F%2Ffonts.googleapis.com%2Fcss%3Ffamily%3DArchitects%2BDaughter;fontSize=16;" parent="1" edge="1">
          <mxGeometry width="50" height="50" relative="1" as="geometry">
            <mxPoint x="1620" y="880" as="sourcePoint" />
            <mxPoint x="1850" y="880" as="targetPoint" />
          </mxGeometry>
        </mxCell>
        <mxCell id="pKcUwKG9cRj5ERJw97R6-53" value="" style="endArrow=none;html=1;rounded=0;hachureGap=4;fontFamily=Architects Daughter;fontSource=https%3A%2F%2Ffonts.googleapis.com%2Fcss%3Ffamily%3DArchitects%2BDaughter;fontSize=16;" parent="1" edge="1">
          <mxGeometry width="50" height="50" relative="1" as="geometry">
            <mxPoint x="1840" y="880" as="sourcePoint" />
            <mxPoint x="1840" y="580" as="targetPoint" />
          </mxGeometry>
        </mxCell>
        <mxCell id="pKcUwKG9cRj5ERJw97R6-54" value="" style="endArrow=classic;html=1;rounded=0;hachureGap=4;fontFamily=Architects Daughter;fontSource=https%3A%2F%2Ffonts.googleapis.com%2Fcss%3Ffamily%3DArchitects%2BDaughter;fontSize=16;" parent="1" target="pKcUwKG9cRj5ERJw97R6-50" edge="1">
          <mxGeometry width="50" height="50" relative="1" as="geometry">
            <mxPoint x="1840" y="580" as="sourcePoint" />
            <mxPoint x="1900" y="580" as="targetPoint" />
          </mxGeometry>
        </mxCell>
        <mxCell id="pKcUwKG9cRj5ERJw97R6-55" value="" style="endArrow=none;html=1;rounded=0;hachureGap=4;fontFamily=Architects Daughter;fontSource=https%3A%2F%2Ffonts.googleapis.com%2Fcss%3Ffamily%3DArchitects%2BDaughter;fontSize=16;" parent="1" edge="1">
          <mxGeometry width="50" height="50" relative="1" as="geometry">
            <mxPoint x="1610" y="1000" as="sourcePoint" />
            <mxPoint x="1850" y="1000" as="targetPoint" />
          </mxGeometry>
        </mxCell>
        <mxCell id="pKcUwKG9cRj5ERJw97R6-56" value="" style="endArrow=none;html=1;rounded=0;hachureGap=4;fontFamily=Architects Daughter;fontSource=https%3A%2F%2Ffonts.googleapis.com%2Fcss%3Ffamily%3DArchitects%2BDaughter;fontSize=16;" parent="1" edge="1">
          <mxGeometry width="50" height="50" relative="1" as="geometry">
            <mxPoint x="1850" y="999.33" as="sourcePoint" />
            <mxPoint x="1850" y="580" as="targetPoint" />
          </mxGeometry>
        </mxCell>
        <mxCell id="pKcUwKG9cRj5ERJw97R6-57" value="" style="endArrow=none;html=1;rounded=0;hachureGap=4;fontFamily=Architects Daughter;fontSource=https%3A%2F%2Ffonts.googleapis.com%2Fcss%3Ffamily%3DArchitects%2BDaughter;fontSize=16;" parent="1" edge="1">
          <mxGeometry width="50" height="50" relative="1" as="geometry">
            <mxPoint x="1610" y="1144.33" as="sourcePoint" />
            <mxPoint x="1860" y="1144" as="targetPoint" />
          </mxGeometry>
        </mxCell>
        <mxCell id="pKcUwKG9cRj5ERJw97R6-58" value="" style="endArrow=none;html=1;rounded=0;hachureGap=4;fontFamily=Architects Daughter;fontSource=https%3A%2F%2Ffonts.googleapis.com%2Fcss%3Ffamily%3DArchitects%2BDaughter;fontSize=16;" parent="1" edge="1">
          <mxGeometry width="50" height="50" relative="1" as="geometry">
            <mxPoint x="1860" y="1140" as="sourcePoint" />
            <mxPoint x="1860" y="580" as="targetPoint" />
          </mxGeometry>
        </mxCell>
        <mxCell id="pKcUwKG9cRj5ERJw97R6-63" value="" style="edgeStyle=orthogonalEdgeStyle;rounded=0;hachureGap=4;orthogonalLoop=1;jettySize=auto;html=1;fontFamily=Architects Daughter;fontSource=https%3A%2F%2Ffonts.googleapis.com%2Fcss%3Ffamily%3DArchitects%2BDaughter;fontSize=16;" parent="1" source="pKcUwKG9cRj5ERJw97R6-59" target="pKcUwKG9cRj5ERJw97R6-62" edge="1">
          <mxGeometry relative="1" as="geometry" />
        </mxCell>
        <mxCell id="pKcUwKG9cRj5ERJw97R6-66" value="&lt;font face=&quot;Times New Roman&quot;&gt;ya&lt;/font&gt;" style="edgeLabel;html=1;align=center;verticalAlign=middle;resizable=0;points=[];fontSize=20;fontFamily=Architects Daughter;" parent="pKcUwKG9cRj5ERJw97R6-63" vertex="1" connectable="0">
          <mxGeometry x="0.1" y="-2" relative="1" as="geometry">
            <mxPoint x="2" y="-13" as="offset" />
          </mxGeometry>
        </mxCell>
        <mxCell id="pKcUwKG9cRj5ERJw97R6-59" value="&lt;font face=&quot;Times New Roman&quot;&gt;Kategori==Electronic?&lt;br&gt;&lt;/font&gt;" style="rhombus;whiteSpace=wrap;html=1;fontSize=20;fontFamily=Architects Daughter;rounded=0;hachureGap=4;fontSource=https%3A%2F%2Ffonts.googleapis.com%2Fcss%3Ffamily%3DArchitects%2BDaughter;fillColor=#fa6800;fontColor=#000000;strokeColor=#C73500;" parent="1" vertex="1">
          <mxGeometry x="1910" y="700" width="320" height="90" as="geometry" />
        </mxCell>
        <mxCell id="pKcUwKG9cRj5ERJw97R6-61" value="" style="endArrow=classic;html=1;rounded=0;hachureGap=4;fontFamily=Architects Daughter;fontSource=https%3A%2F%2Ffonts.googleapis.com%2Fcss%3Ffamily%3DArchitects%2BDaughter;fontSize=16;" parent="1" edge="1">
          <mxGeometry width="50" height="50" relative="1" as="geometry">
            <mxPoint x="1840" y="744.33" as="sourcePoint" />
            <mxPoint x="1910" y="744.33" as="targetPoint" />
          </mxGeometry>
        </mxCell>
        <mxCell id="pKcUwKG9cRj5ERJw97R6-62" value="&lt;font face=&quot;Times New Roman&quot;&gt;Kategori==Electronic?&lt;br&gt;&lt;/font&gt;" style="rhombus;whiteSpace=wrap;html=1;fontSize=20;fontFamily=Architects Daughter;rounded=0;hachureGap=4;fontSource=https%3A%2F%2Ffonts.googleapis.com%2Fcss%3Ffamily%3DArchitects%2BDaughter;fillColor=#fa6800;fontColor=#000000;strokeColor=#C73500;" parent="1" vertex="1">
          <mxGeometry x="1910" y="830" width="320" height="90" as="geometry" />
        </mxCell>
        <mxCell id="pKcUwKG9cRj5ERJw97R6-64" value="" style="endArrow=classic;html=1;rounded=0;hachureGap=4;fontFamily=Architects Daughter;fontSource=https%3A%2F%2Ffonts.googleapis.com%2Fcss%3Ffamily%3DArchitects%2BDaughter;fontSize=16;" parent="1" target="pKcUwKG9cRj5ERJw97R6-62" edge="1">
          <mxGeometry width="50" height="50" relative="1" as="geometry">
            <mxPoint x="1850" y="880" as="sourcePoint" />
            <mxPoint x="1900" y="880" as="targetPoint" />
          </mxGeometry>
        </mxCell>
        <mxCell id="pKcUwKG9cRj5ERJw97R6-68" value="" style="endArrow=classic;html=1;rounded=0;hachureGap=4;fontFamily=Architects Daughter;fontSource=https%3A%2F%2Ffonts.googleapis.com%2Fcss%3Ffamily%3DArchitects%2BDaughter;fontSize=16;" parent="1" edge="1">
          <mxGeometry width="50" height="50" relative="1" as="geometry">
            <mxPoint x="2221" y="574.44" as="sourcePoint" />
            <mxPoint x="2341" y="574.44" as="targetPoint" />
          </mxGeometry>
        </mxCell>
        <mxCell id="pKcUwKG9cRj5ERJw97R6-71" value="&lt;font face=&quot;Times New Roman&quot;&gt;ya&lt;/font&gt;" style="edgeLabel;html=1;align=center;verticalAlign=middle;resizable=0;points=[];fontSize=20;fontFamily=Architects Daughter;" parent="pKcUwKG9cRj5ERJw97R6-68" vertex="1" connectable="0">
          <mxGeometry x="-0.0574" y="3" relative="1" as="geometry">
            <mxPoint as="offset" />
          </mxGeometry>
        </mxCell>
        <mxCell id="pKcUwKG9cRj5ERJw97R6-69" value="" style="endArrow=classic;html=1;rounded=0;hachureGap=4;fontFamily=Architects Daughter;fontSource=https%3A%2F%2Ffonts.googleapis.com%2Fcss%3Ffamily%3DArchitects%2BDaughter;fontSize=16;" parent="1" edge="1">
          <mxGeometry width="50" height="50" relative="1" as="geometry">
            <mxPoint x="2230" y="744.44" as="sourcePoint" />
            <mxPoint x="2350" y="744.44" as="targetPoint" />
          </mxGeometry>
        </mxCell>
        <mxCell id="pKcUwKG9cRj5ERJw97R6-72" value="&lt;font face=&quot;Times New Roman&quot;&gt;ya&lt;/font&gt;" style="edgeLabel;html=1;align=center;verticalAlign=middle;resizable=0;points=[];fontSize=20;fontFamily=Architects Daughter;" parent="pKcUwKG9cRj5ERJw97R6-69" vertex="1" connectable="0">
          <mxGeometry x="-0.2259" y="-5" relative="1" as="geometry">
            <mxPoint as="offset" />
          </mxGeometry>
        </mxCell>
        <mxCell id="pKcUwKG9cRj5ERJw97R6-70" value="" style="endArrow=classic;html=1;rounded=0;hachureGap=4;fontFamily=Architects Daughter;fontSource=https%3A%2F%2Ffonts.googleapis.com%2Fcss%3Ffamily%3DArchitects%2BDaughter;fontSize=16;" parent="1" edge="1">
          <mxGeometry width="50" height="50" relative="1" as="geometry">
            <mxPoint x="2230" y="874.44" as="sourcePoint" />
            <mxPoint x="2350" y="874.44" as="targetPoint" />
          </mxGeometry>
        </mxCell>
        <mxCell id="pKcUwKG9cRj5ERJw97R6-73" value="&lt;font face=&quot;Times New Roman&quot;&gt;ya&lt;/font&gt;" style="edgeLabel;html=1;align=center;verticalAlign=middle;resizable=0;points=[];fontSize=20;fontFamily=Architects Daughter;" parent="pKcUwKG9cRj5ERJw97R6-70" vertex="1" connectable="0">
          <mxGeometry x="-0.1519" y="-1" relative="1" as="geometry">
            <mxPoint as="offset" />
          </mxGeometry>
        </mxCell>
        <mxCell id="pKcUwKG9cRj5ERJw97R6-74" value="&lt;font face=&quot;Times New Roman&quot;&gt;Diskon 5%&lt;br&gt;&lt;/font&gt;" style="rounded=0;whiteSpace=wrap;html=1;hachureGap=4;fontFamily=Architects Daughter;fontSource=https%3A%2F%2Ffonts.googleapis.com%2Fcss%3Ffamily%3DArchitects%2BDaughter;fontSize=20;fillColor=#d80073;fontColor=#ffffff;strokeColor=#A50040;" parent="1" vertex="1">
          <mxGeometry x="2341" y="550" width="120" height="60" as="geometry" />
        </mxCell>
        <mxCell id="pKcUwKG9cRj5ERJw97R6-75" value="&lt;font face=&quot;Times New Roman&quot;&gt;Diskon 5%&lt;br&gt;&lt;/font&gt;" style="rounded=0;whiteSpace=wrap;html=1;hachureGap=4;fontFamily=Architects Daughter;fontSource=https%3A%2F%2Ffonts.googleapis.com%2Fcss%3Ffamily%3DArchitects%2BDaughter;fontSize=20;fillColor=#d80073;fontColor=#ffffff;strokeColor=#A50040;" parent="1" vertex="1">
          <mxGeometry x="2350" y="715" width="120" height="60" as="geometry" />
        </mxCell>
        <mxCell id="pKcUwKG9cRj5ERJw97R6-78" value="" style="edgeStyle=orthogonalEdgeStyle;rounded=0;hachureGap=4;orthogonalLoop=1;jettySize=auto;html=1;fontFamily=Architects Daughter;fontSource=https%3A%2F%2Ffonts.googleapis.com%2Fcss%3Ffamily%3DArchitects%2BDaughter;fontSize=16;" parent="1" source="pKcUwKG9cRj5ERJw97R6-76" target="pKcUwKG9cRj5ERJw97R6-77" edge="1">
          <mxGeometry relative="1" as="geometry" />
        </mxCell>
        <mxCell id="pKcUwKG9cRj5ERJw97R6-89" value="" style="edgeStyle=orthogonalEdgeStyle;rounded=0;hachureGap=4;orthogonalLoop=1;jettySize=auto;html=1;fontFamily=Architects Daughter;fontSource=https%3A%2F%2Ffonts.googleapis.com%2Fcss%3Ffamily%3DArchitects%2BDaughter;fontSize=16;" parent="1" source="pKcUwKG9cRj5ERJw97R6-76" target="pKcUwKG9cRj5ERJw97R6-88" edge="1">
          <mxGeometry relative="1" as="geometry" />
        </mxCell>
        <mxCell id="pKcUwKG9cRj5ERJw97R6-76" value="&lt;font face=&quot;Times New Roman&quot;&gt;Diskon 10%&lt;/font&gt;" style="rounded=0;whiteSpace=wrap;html=1;hachureGap=4;fontFamily=Architects Daughter;fontSource=https%3A%2F%2Ffonts.googleapis.com%2Fcss%3Ffamily%3DArchitects%2BDaughter;fontSize=20;fillColor=#d80073;fontColor=#ffffff;strokeColor=#A50040;" parent="1" vertex="1">
          <mxGeometry x="2350" y="840" width="120" height="60" as="geometry" />
        </mxCell>
        <mxCell id="pKcUwKG9cRj5ERJw97R6-80" value="" style="edgeStyle=orthogonalEdgeStyle;rounded=0;hachureGap=4;orthogonalLoop=1;jettySize=auto;html=1;fontFamily=Architects Daughter;fontSource=https%3A%2F%2Ffonts.googleapis.com%2Fcss%3Ffamily%3DArchitects%2BDaughter;fontSize=16;" parent="1" source="pKcUwKG9cRj5ERJw97R6-77" target="pKcUwKG9cRj5ERJw97R6-79" edge="1">
          <mxGeometry relative="1" as="geometry" />
        </mxCell>
        <mxCell id="pKcUwKG9cRj5ERJw97R6-77" value="&lt;font face=&quot;Times New Roman&quot;&gt;Total Belanjaan &amp;amp; diskon&lt;br&gt;&lt;/font&gt;" style="shape=parallelogram;perimeter=parallelogramPerimeter;whiteSpace=wrap;html=1;fixedSize=1;fontSize=20;fontFamily=Architects Daughter;rounded=0;hachureGap=4;fontSource=https%3A%2F%2Ffonts.googleapis.com%2Fcss%3Ffamily%3DArchitects%2BDaughter;fillColor=#647687;fontColor=#ffffff;strokeColor=#314354;" parent="1" vertex="1">
          <mxGeometry x="2317.75" y="1060" width="184.5" height="60" as="geometry" />
        </mxCell>
        <mxCell id="pKcUwKG9cRj5ERJw97R6-95" value="" style="edgeStyle=orthogonalEdgeStyle;rounded=0;hachureGap=4;orthogonalLoop=1;jettySize=auto;html=1;fontFamily=Architects Daughter;fontSource=https%3A%2F%2Ffonts.googleapis.com%2Fcss%3Ffamily%3DArchitects%2BDaughter;fontSize=16;" parent="1" source="pKcUwKG9cRj5ERJw97R6-79" target="pKcUwKG9cRj5ERJw97R6-94" edge="1">
          <mxGeometry relative="1" as="geometry" />
        </mxCell>
        <mxCell id="pKcUwKG9cRj5ERJw97R6-79" value="&lt;font face=&quot;Times New Roman&quot;&gt;Total Harga&lt;br&gt;&lt;/font&gt;" style="rounded=0;whiteSpace=wrap;html=1;fontSize=20;fontFamily=Architects Daughter;hachureGap=4;fontSource=https%3A%2F%2Ffonts.googleapis.com%2Fcss%3Ffamily%3DArchitects%2BDaughter;fillColor=#fa6800;fontColor=#000000;strokeColor=#C73500;" parent="1" vertex="1">
          <mxGeometry x="2350" y="1175" width="120" height="60" as="geometry" />
        </mxCell>
        <mxCell id="pKcUwKG9cRj5ERJw97R6-82" value="" style="endArrow=none;dashed=1;html=1;dashPattern=1 3;strokeWidth=2;rounded=0;hachureGap=4;fontFamily=Architects Daughter;fontSource=https%3A%2F%2Ffonts.googleapis.com%2Fcss%3Ffamily%3DArchitects%2BDaughter;fontSize=16;strokeColor=#666666;" parent="1" edge="1">
          <mxGeometry width="50" height="50" relative="1" as="geometry">
            <mxPoint x="2470" y="750" as="sourcePoint" />
            <mxPoint x="2680" y="750" as="targetPoint" />
          </mxGeometry>
        </mxCell>
        <mxCell id="pKcUwKG9cRj5ERJw97R6-84" value="" style="endArrow=none;dashed=1;html=1;rounded=0;hachureGap=4;fontFamily=Architects Daughter;fontSource=https%3A%2F%2Ffonts.googleapis.com%2Fcss%3Ffamily%3DArchitects%2BDaughter;fontSize=16;strokeColor=#666666;" parent="1" edge="1">
          <mxGeometry width="50" height="50" relative="1" as="geometry">
            <mxPoint x="2680" y="1100" as="sourcePoint" />
            <mxPoint x="2680" y="750" as="targetPoint" />
          </mxGeometry>
        </mxCell>
        <mxCell id="pKcUwKG9cRj5ERJw97R6-85" value="" style="endArrow=none;dashed=1;html=1;rounded=0;hachureGap=4;fontFamily=Architects Daughter;fontSource=https%3A%2F%2Ffonts.googleapis.com%2Fcss%3Ffamily%3DArchitects%2BDaughter;fontSize=16;strokeColor=#666666;" parent="1" edge="1">
          <mxGeometry width="50" height="50" relative="1" as="geometry">
            <mxPoint x="2520" y="1100" as="sourcePoint" />
            <mxPoint x="2680" y="1100" as="targetPoint" />
          </mxGeometry>
        </mxCell>
        <mxCell id="pKcUwKG9cRj5ERJw97R6-88" value="&lt;font face=&quot;Times New Roman&quot;&gt;Diskon 20%&lt;br&gt;&lt;/font&gt;" style="whiteSpace=wrap;html=1;fontSize=20;fontFamily=Architects Daughter;rounded=0;hachureGap=4;fontSource=https%3A%2F%2Ffonts.googleapis.com%2Fcss%3Ffamily%3DArchitects%2BDaughter;fillColor=#d80073;fontColor=#ffffff;strokeColor=#A50040;" parent="1" vertex="1">
          <mxGeometry x="2350" y="950" width="120" height="60" as="geometry" />
        </mxCell>
        <mxCell id="pKcUwKG9cRj5ERJw97R6-90" value="" style="endArrow=none;dashed=1;html=1;rounded=0;hachureGap=4;fontFamily=Architects Daughter;fontSource=https%3A%2F%2Ffonts.googleapis.com%2Fcss%3Ffamily%3DArchitects%2BDaughter;fontSize=16;strokeColor=#666666;" parent="1" edge="1">
          <mxGeometry width="50" height="50" relative="1" as="geometry">
            <mxPoint x="2470" y="880" as="sourcePoint" />
            <mxPoint x="2660" y="880" as="targetPoint" />
          </mxGeometry>
        </mxCell>
        <mxCell id="pKcUwKG9cRj5ERJw97R6-91" value="" style="endArrow=none;dashed=1;html=1;rounded=0;hachureGap=4;fontFamily=Architects Daughter;fontSource=https%3A%2F%2Ffonts.googleapis.com%2Fcss%3Ffamily%3DArchitects%2BDaughter;fontSize=16;strokeColor=#666666;" parent="1" edge="1">
          <mxGeometry width="50" height="50" relative="1" as="geometry">
            <mxPoint x="2660" y="1090" as="sourcePoint" />
            <mxPoint x="2660" y="880" as="targetPoint" />
          </mxGeometry>
        </mxCell>
        <mxCell id="pKcUwKG9cRj5ERJw97R6-92" value="" style="endArrow=none;dashed=1;html=1;rounded=0;hachureGap=4;fontFamily=Architects Daughter;fontSource=https%3A%2F%2Ffonts.googleapis.com%2Fcss%3Ffamily%3DArchitects%2BDaughter;fontSize=16;strokeColor=#666666;" parent="1" edge="1">
          <mxGeometry width="50" height="50" relative="1" as="geometry">
            <mxPoint x="2520" y="1089.44" as="sourcePoint" />
            <mxPoint x="2660" y="1089" as="targetPoint" />
          </mxGeometry>
        </mxCell>
        <mxCell id="pKcUwKG9cRj5ERJw97R6-93" value="" style="endArrow=classic;html=1;rounded=0;hachureGap=4;fontFamily=Architects Daughter;fontSource=https%3A%2F%2Ffonts.googleapis.com%2Fcss%3Ffamily%3DArchitects%2BDaughter;fontSize=16;entryX=0.988;entryY=0.5;entryDx=0;entryDy=0;entryPerimeter=0;" parent="1" target="pKcUwKG9cRj5ERJw97R6-77" edge="1">
          <mxGeometry width="50" height="50" relative="1" as="geometry">
            <mxPoint x="2520" y="1100" as="sourcePoint" />
            <mxPoint x="2560" y="1060" as="targetPoint" />
            <Array as="points">
              <mxPoint x="2520" y="1100" />
              <mxPoint x="2520" y="1090" />
            </Array>
          </mxGeometry>
        </mxCell>
        <mxCell id="pKcUwKG9cRj5ERJw97R6-94" value="&lt;font face=&quot;Times New Roman&quot;&gt;Melakukan Pembayaran&lt;br&gt;&lt;/font&gt;" style="shape=parallelogram;perimeter=parallelogramPerimeter;whiteSpace=wrap;html=1;fixedSize=1;fontSize=20;fontFamily=Architects Daughter;rounded=0;hachureGap=4;fontSource=https%3A%2F%2Ffonts.googleapis.com%2Fcss%3Ffamily%3DArchitects%2BDaughter;fillColor=#647687;fontColor=#ffffff;strokeColor=#314354;" parent="1" vertex="1">
          <mxGeometry x="2330" y="1310" width="160" height="60" as="geometry" />
        </mxCell>
        <mxCell id="pKcUwKG9cRj5ERJw97R6-96" value="&lt;font face=&quot;Times New Roman&quot;&gt;End&lt;/font&gt;" style="strokeWidth=2;html=1;shape=mxgraph.flowchart.terminator;whiteSpace=wrap;hachureGap=4;fontFamily=Architects Daughter;fontSource=https%3A%2F%2Ffonts.googleapis.com%2Fcss%3Ffamily%3DArchitects%2BDaughter;fontSize=20;fillColor=#0050ef;fontColor=#ffffff;strokeColor=#001DBC;" parent="1" vertex="1">
          <mxGeometry x="2340" y="1440" width="140" height="60" as="geometry" />
        </mxCell>
        <mxCell id="pKcUwKG9cRj5ERJw97R6-98" value="" style="endArrow=classic;html=1;rounded=0;hachureGap=4;fontFamily=Architects Daughter;fontSource=https%3A%2F%2Ffonts.googleapis.com%2Fcss%3Ffamily%3DArchitects%2BDaughter;fontSize=16;strokeColor=#666666;" parent="1" edge="1">
          <mxGeometry width="50" height="50" relative="1" as="geometry">
            <mxPoint x="2411" y="1370" as="sourcePoint" />
            <mxPoint x="2410" y="1440" as="targetPoint" />
          </mxGeometry>
        </mxCell>
      </root>
    </mxGraphModel>
  </diagram>
</mxfile>
